<?xml version="1.0" encoding="UTF-8"?><svg xmlns="http://www.w3.org/2000/svg" xmlns:xlink="http://www.w3.org/1999/xlink" fill-opacity="1" color-rendering="auto" color-interpolation="auto" text-rendering="auto" stroke="black" stroke-linecap="square" width="817" stroke-miterlimit="10" shape-rendering="auto" stroke-opacity="1" fill="black" stroke-dasharray="none" font-weight="normal" stroke-width="1" height="435" font-family="'Dialog'" font-style="normal" stroke-linejoin="miter" font-size="12px" stroke-dashoffset="0" image-rendering="auto">
  <!--Generated by ySVG 2.5-->
  <defs id="genericDefs"/>
  <g>
    <defs id="defs1">
      <linearGradient x1="279" gradientUnits="userSpaceOnUse" x2="423" y1="233" y2="307" id="linearGradient1" spreadMethod="reflect">
        <stop stop-opacity="1" stop-color="rgb(232,238,247)" offset="0%"/>
        <stop stop-opacity="1" stop-color="rgb(183,201,227)" offset="100%"/>
      </linearGradient>
      <linearGradient x1="458.72" gradientUnits="userSpaceOnUse" x2="574.72" y1="129" y2="203" id="linearGradient2" spreadMethod="reflect">
        <stop stop-opacity="1" stop-color="rgb(232,238,247)" offset="0%"/>
        <stop stop-opacity="1" stop-color="rgb(183,201,227)" offset="100%"/>
      </linearGradient>
      <linearGradient x1="458.72" gradientUnits="userSpaceOnUse" x2="574.72" y1="323" y2="397" id="linearGradient3" spreadMethod="reflect">
        <stop stop-opacity="1" stop-color="rgb(232,238,247)" offset="0%"/>
        <stop stop-opacity="1" stop-color="rgb(183,201,227)" offset="100%"/>
      </linearGradient>
      <linearGradient x1="662" gradientUnits="userSpaceOnUse" x2="778" y1="23" y2="97" id="linearGradient4" spreadMethod="reflect">
        <stop stop-opacity="1" stop-color="rgb(232,238,247)" offset="0%"/>
        <stop stop-opacity="1" stop-color="rgb(183,201,227)" offset="100%"/>
      </linearGradient>
      <linearGradient x1="662" gradientUnits="userSpaceOnUse" x2="778" y1="173" y2="247" id="linearGradient5" spreadMethod="reflect">
        <stop stop-opacity="1" stop-color="rgb(232,238,247)" offset="0%"/>
        <stop stop-opacity="1" stop-color="rgb(183,201,227)" offset="100%"/>
      </linearGradient>
      <linearGradient x1="666" gradientUnits="userSpaceOnUse" x2="782" y1="293" y2="367" id="linearGradient6" spreadMethod="reflect">
        <stop stop-opacity="1" stop-color="rgb(232,238,247)" offset="0%"/>
        <stop stop-opacity="1" stop-color="rgb(183,201,227)" offset="100%"/>
      </linearGradient>
      <linearGradient x1="901.6275" gradientUnits="userSpaceOnUse" x2="1045.6274" y1="250" y2="307" id="linearGradient7" spreadMethod="reflect">
        <stop stop-opacity="1" stop-color="rgb(232,238,247)" offset="0%"/>
        <stop stop-opacity="1" stop-color="rgb(183,201,227)" offset="100%"/>
      </linearGradient>
      <clipPath clipPathUnits="userSpaceOnUse" id="clipPath1">
        <path d="M0 0 L817 0 L817 435 L0 435 L0 0 Z"/>
      </clipPath>
      <clipPath clipPathUnits="userSpaceOnUse" id="clipPath2">
        <path d="M254 -13 L1071 -13 L1071 422 L254 422 L254 -13 Z"/>
      </clipPath>
    </defs>
    <g fill="white" text-rendering="geometricPrecision" shape-rendering="geometricPrecision" transform="translate(-254,13)" stroke="white">
      <rect x="254" width="817" height="435" y="-13" clip-path="url(#clipPath2)" stroke="none"/>
    </g>
    <g fill="url(#linearGradient1)" text-rendering="geometricPrecision" shape-rendering="geometricPrecision" transform="matrix(1,0,0,1,-254,13)" stroke="url(#linearGradient1)">
      <ellipse rx="72" ry="37" clip-path="url(#clipPath2)" cx="351" cy="270" stroke="none"/>
    </g>
    <g text-rendering="geometricPrecision" stroke-miterlimit="1.45" shape-rendering="geometricPrecision" transform="matrix(1,0,0,1,-254,13)" stroke-linecap="butt">
      <ellipse rx="72" fill="none" ry="37" clip-path="url(#clipPath2)" cx="351" cy="270"/>
      <text x="323.6689" xml:space="preserve" y="266.543" clip-path="url(#clipPath2)" font-family="'Source Han Sans CN'" stroke="none">视频片段1</text>
      <text x="293.6689" xml:space="preserve" y="283.9219" clip-path="url(#clipPath2)" font-family="'Source Han Sans CN'" stroke="none">（状态1，初始状态）</text>
    </g>
    <g fill="url(#linearGradient2)" text-rendering="geometricPrecision" shape-rendering="geometricPrecision" transform="matrix(1,0,0,1,-254,13)" stroke="url(#linearGradient2)">
      <circle r="37" clip-path="url(#clipPath2)" cx="516.72" cy="166" stroke="none"/>
    </g>
    <g text-rendering="geometricPrecision" stroke-miterlimit="1.45" shape-rendering="geometricPrecision" transform="matrix(1,0,0,1,-254,13)" stroke-linecap="butt">
      <circle fill="none" r="37" clip-path="url(#clipPath2)" cx="516.72" cy="166"/>
      <text x="489.3889" xml:space="preserve" y="162.543" clip-path="url(#clipPath2)" font-family="'Source Han Sans CN'" stroke="none">视频片段2</text>
      <text x="489.3889" xml:space="preserve" y="179.9219" clip-path="url(#clipPath2)" font-family="'Source Han Sans CN'" stroke="none">（状态2）</text>
    </g>
    <g fill="url(#linearGradient3)" text-rendering="geometricPrecision" shape-rendering="geometricPrecision" transform="matrix(1,0,0,1,-254,13)" stroke="url(#linearGradient3)">
      <circle r="37" clip-path="url(#clipPath2)" cx="516.72" cy="360" stroke="none"/>
    </g>
    <g text-rendering="geometricPrecision" stroke-miterlimit="1.45" shape-rendering="geometricPrecision" transform="matrix(1,0,0,1,-254,13)" stroke-linecap="butt">
      <circle fill="none" r="37" clip-path="url(#clipPath2)" cx="516.72" cy="360"/>
      <text x="489.3889" xml:space="preserve" y="356.543" clip-path="url(#clipPath2)" font-family="'Source Han Sans CN'" stroke="none">视频片段3</text>
      <text x="489.3889" xml:space="preserve" y="373.9219" clip-path="url(#clipPath2)" font-family="'Source Han Sans CN'" stroke="none">（状态3）</text>
    </g>
    <g fill="url(#linearGradient4)" text-rendering="geometricPrecision" shape-rendering="geometricPrecision" transform="matrix(1,0,0,1,-254,13)" stroke="url(#linearGradient4)">
      <circle r="37" clip-path="url(#clipPath2)" cx="720" cy="60" stroke="none"/>
    </g>
    <g text-rendering="geometricPrecision" stroke-miterlimit="1.45" shape-rendering="geometricPrecision" transform="matrix(1,0,0,1,-254,13)" stroke-linecap="butt">
      <circle fill="none" r="37" clip-path="url(#clipPath2)" cx="720" cy="60"/>
      <text x="692.6689" xml:space="preserve" y="56.543" clip-path="url(#clipPath2)" font-family="'Source Han Sans CN'" stroke="none">视频片段4</text>
      <text x="692.6689" xml:space="preserve" y="73.9219" clip-path="url(#clipPath2)" font-family="'Source Han Sans CN'" stroke="none">（状态4）</text>
    </g>
    <g fill="url(#linearGradient5)" text-rendering="geometricPrecision" shape-rendering="geometricPrecision" transform="matrix(1,0,0,1,-254,13)" stroke="url(#linearGradient5)">
      <circle r="37" clip-path="url(#clipPath2)" cx="720" cy="210" stroke="none"/>
    </g>
    <g text-rendering="geometricPrecision" stroke-miterlimit="1.45" shape-rendering="geometricPrecision" transform="matrix(1,0,0,1,-254,13)" stroke-linecap="butt">
      <circle fill="none" r="37" clip-path="url(#clipPath2)" cx="720" cy="210"/>
      <text x="692.6689" xml:space="preserve" y="206.543" clip-path="url(#clipPath2)" font-family="'Source Han Sans CN'" stroke="none">视频片段5</text>
      <text x="692.6689" xml:space="preserve" y="223.9219" clip-path="url(#clipPath2)" font-family="'Source Han Sans CN'" stroke="none">（状态5）</text>
    </g>
    <g fill="url(#linearGradient6)" text-rendering="geometricPrecision" shape-rendering="geometricPrecision" transform="matrix(1,0,0,1,-254,13)" stroke="url(#linearGradient6)">
      <circle r="37" clip-path="url(#clipPath2)" cx="724" cy="330" stroke="none"/>
    </g>
    <g text-rendering="geometricPrecision" stroke-miterlimit="1.45" shape-rendering="geometricPrecision" transform="matrix(1,0,0,1,-254,13)" stroke-linecap="butt">
      <circle fill="none" r="37" clip-path="url(#clipPath2)" cx="724" cy="330"/>
      <text x="696.6689" xml:space="preserve" y="326.543" clip-path="url(#clipPath2)" font-family="'Source Han Sans CN'" stroke="none">视频片段6</text>
      <text x="696.6689" xml:space="preserve" y="343.9219" clip-path="url(#clipPath2)" font-family="'Source Han Sans CN'" stroke="none">（状态6）</text>
    </g>
    <g fill="url(#linearGradient7)" text-rendering="geometricPrecision" shape-rendering="geometricPrecision" transform="matrix(1,0,0,1,-254,13)" stroke="url(#linearGradient7)">
      <rect x="901.6275" y="250" clip-path="url(#clipPath2)" width="144" rx="28.5" ry="28.5" height="57" stroke="none"/>
    </g>
    <g text-rendering="geometricPrecision" stroke-miterlimit="1.45" shape-rendering="geometricPrecision" transform="matrix(1,0,0,1,-254,13)" stroke-linecap="butt">
      <rect x="901.6275" y="250" clip-path="url(#clipPath2)" fill="none" width="144" rx="28.5" ry="28.5" height="57"/>
      <text x="946.2964" xml:space="preserve" y="275.043" clip-path="url(#clipPath2)" font-family="'Source Han Sans CN'" stroke="none">视频片段7</text>
      <text x="916.2964" xml:space="preserve" y="292.4219" clip-path="url(#clipPath2)" font-family="'Source Han Sans CN'" stroke="none">（状态7，结束状态）</text>
    </g>
    <g stroke-linecap="butt" transform="matrix(1,0,0,1,-254,13)" fill="rgb(51,102,153)" text-rendering="geometricPrecision" shape-rendering="geometricPrecision" stroke="rgb(51,102,153)" stroke-miterlimit="1.45">
      <path fill="none" d="M362.6748 233.474 L366.2288 225.2536 L372.93 212.9275 L380.4437 201.8961 L388.77 192.1594 L397.9088 183.7173 L407.86 176.57 L418.6237 170.7173 L430.2 166.1594 L442.5887 162.8961 L455.79 160.9275 L469.8037 160.2536 L472.0906 160.3493" clip-path="url(#clipPath2)"/>
    </g>
    <g stroke-linecap="butt" transform="matrix(1,0,0,1,-254,13)" fill="rgb(51,102,153)" text-rendering="geometricPrecision" shape-rendering="geometricPrecision" stroke="rgb(51,102,153)" stroke-miterlimit="1.45">
      <path d="M480.0836 160.684 L468.3033 155.1864 L471.0915 160.3075 L467.885 165.1776 Z" stroke="none" clip-path="url(#clipPath2)"/>
      <text x="384.321" xml:space="preserve" y="143.2534" clip-path="url(#clipPath2)" font-family="'Source Han Sans CN'" stroke="none">选择1.A</text>
      <text x="366.321" xml:space="preserve" y="160.6323" clip-path="url(#clipPath2)" font-family="'Source Han Sans CN'" stroke="none">（触发器1.A）</text>
      <path fill="none" d="M364.1094 306.3969 L367.545 313.6249 L374.55 325.423 L382.3 335.8492 L390.795 344.9037 L400.0351 352.5864 L410.0201 358.8973 L420.7501 363.8364 L432.225 367.4037 L444.445 369.5992 L457.41 370.423 L471.12 369.8749 L472.8169 369.6495" clip-path="url(#clipPath2)"/>
      <path d="M480.7473 368.5963 L468.1935 365.2197 L471.8256 369.7812 L469.51 375.1327 Z" clip-path="url(#clipPath2)" stroke="none"/>
      <text x="406.5094" xml:space="preserve" y="327.4561" clip-path="url(#clipPath2)" font-family="'Source Han Sans CN'" stroke="none">选择1.B</text>
      <text x="388.5094" xml:space="preserve" y="344.835" clip-path="url(#clipPath2)" font-family="'Source Han Sans CN'" stroke="none">（触发器1.B）</text>
      <path fill="none" d="M527.8331 324.6882 L528.2222 323.3333 L530.2036 314.7526 L531.4688 306.5625 L531.8746 298.8412 L531.2778 291.6667 L529.5352 285.1172 L526.5035 279.2708 L522.0395 274.2057 L516 270 L508.2895 266.7057 L499.0035 264.2708 L488.2852 262.6172 L476.2778 261.6667 L463.1246 261.3412 L448.9688 261.5625 L433.9536 262.2526 L429.7368 262.5423" clip-path="url(#clipPath2)"/>
      <path d="M421.7556 263.0906 L434.0701 267.2564 L430.7345 262.4738 L433.3847 257.2799 Z" clip-path="url(#clipPath2)" stroke="none"/>
      <path fill="none" d="M530.1215 131.4762 L530.5363 130.5163 L538.6865 115.1566 L547.665 101.385 L557.4716 89.2016 L568.1062 78.6062 L579.569 69.5991 L591.86 62.18 L604.9791 56.3491 L618.9263 52.1062 L633.7015 49.4516 L649.305 48.385 L665.7366 48.9066 L676.0905 50.1721 L676.1884 50.1922" clip-path="url(#clipPath2)"/>
      <path d="M684.1197 51.2387 L672.877 44.7118 L675.197 50.0613 L671.5687 54.6259 Z" clip-path="url(#clipPath2)" stroke="none"/>
      <text x="569.3653" xml:space="preserve" y="28.7273" clip-path="url(#clipPath2)" font-family="'Source Han Sans CN'" stroke="none">选择 2.A</text>
      <text x="551.3653" xml:space="preserve" y="46.1062" clip-path="url(#clipPath2)" font-family="'Source Han Sans CN'" stroke="none">（触发器 2.A）</text>
      <path fill="none" d="M553.621 163.1765 L570.5807 162.9518 L596.7509 164.9397 L622.4143 169.269 L647.5709 175.9397 L672.2207 184.9518 L680.33 188.7652" clip-path="url(#clipPath2)"/>
      <path d="M687.5695 192.1696 L678.838 182.5383 L679.425 188.3396 L674.5825 191.5877 Z" clip-path="url(#clipPath2)" stroke="none"/>
      <text x="601.0556" xml:space="preserve" y="135.8263" clip-path="url(#clipPath2)" font-family="'Source Han Sans CN'" stroke="none">选择 2.B</text>
      <text x="583.0556" xml:space="preserve" y="153.2052" clip-path="url(#clipPath2)" font-family="'Source Han Sans CN'" stroke="none">（触发器 2.B）</text>
      <text x="453.7417" xml:space="preserve" y="237.4263" clip-path="url(#clipPath2)" font-family="'Source Han Sans CN'" stroke="none">自动跳转</text>
      <text x="447.7417" xml:space="preserve" y="254.8052" clip-path="url(#clipPath2)" font-family="'Source Han Sans CN'" stroke="none">（触发器）</text>
      <text x="891.6685" xml:space="preserve" y="50.0632" clip-path="url(#clipPath2)" font-family="'Source Han Sans CN'" stroke="none">自动跳转</text>
      <text x="885.6685" xml:space="preserve" y="67.4421" clip-path="url(#clipPath2)" font-family="'Source Han Sans CN'" stroke="none">（触发器）</text>
      <path fill="none" d="M534.4658 198.4307 L553.5242 225.9784 L575.6803 251.223 L587.6968 262.6592 L600.339 273.3046 L613.6068 283.1592 L627.5003 292.223 L657.1642 307.9784 L680.9075 317.2732" clip-path="url(#clipPath2)"/>
      <path d="M688.357 320.1895 L679.0054 311.1591 L679.9763 316.9087 L675.36 320.471 Z" clip-path="url(#clipPath2)" stroke="none"/>
      <text x="607.0852" xml:space="preserve" y="250.103" clip-path="url(#clipPath2)" font-family="'Source Han Sans CN'" stroke="none">选择 3.C</text>
      <text x="589.0852" xml:space="preserve" y="267.4819" clip-path="url(#clipPath2)" font-family="'Source Han Sans CN'" stroke="none">（触发器 3.C）</text>
      <text x="816.3322" xml:space="preserve" y="332.6819" clip-path="url(#clipPath2)" font-family="'Source Han Sans CN'" stroke="none">自动跳转</text>
      <text x="810.3322" xml:space="preserve" y="350.0608" clip-path="url(#clipPath2)" font-family="'Source Han Sans CN'" stroke="none">（触发器）</text>
      <text x="834.7913" xml:space="preserve" y="182.8068" clip-path="url(#clipPath2)" font-family="'Source Han Sans CN'" stroke="none">自动跳转</text>
      <text x="828.7913" xml:space="preserve" y="200.1857" clip-path="url(#clipPath2)" font-family="'Source Han Sans CN'" stroke="none">（触发器）</text>
      <path fill="none" d="M756.6885 54.9945 L782.5195 53.1112 L810.8965 53.3729 L837.3517 56.1053 L861.8849 61.3086 L884.4965 68.9825 L905.1861 79.1272 L923.9539 91.7427 L940.7999 106.8289 L955.724 124.3859 L968.7263 144.4136 L979.8068 166.912 L988.9654 191.8812 L996.2022 219.3212 L1000.2563 242.1361 L1000.2667 242.2356" clip-path="url(#clipPath2)"/>
      <path d="M1001.6168 250.1208 L1004.52 237.4491 L1000.098 241.2499 L994.6634 239.1368 Z" clip-path="url(#clipPath2)" stroke="none"/>
      <path fill="none" d="M756.8229 206.6635 L763.8984 206.0742 L778.2963 205.037 L792.4927 204.2325 L806.4375 203.7188 L820.0801 203.554 L833.3704 203.7963 L846.2578 204.5039 L858.6921 205.735 L870.623 207.5476 L882 210 L892.7897 213.1309 L903.0255 216.9016 L912.7578 221.2539 L922.037 226.1296 L930.9135 231.4706 L939.4375 237.2188 L947.6594 243.3158 L949.7292 244.9747 L949.8054 245.0396" clip-path="url(#clipPath2)"/>
      <path d="M956.0414 250.0508 L949.8194 238.6365 L949.0259 244.4132 L943.5554 246.4315 Z" clip-path="url(#clipPath2)" stroke="none"/>
      <path fill="none" d="M759.1976 341.4727 L767.4258 344.0625 L781.6296 348.2963 L795.6008 352.1412 L809.2812 355.5 L822.6127 358.2755 L835.537 360.3704 L847.9961 361.6875 L859.9317 362.1296 L871.2858 361.5995 L882 360 L892.0358 357.2662 L901.4317 353.463 L910.2461 348.6875 L918.537 343.037 L926.3627 336.6088 L933.7812 329.5 L940.8508 321.8079 L947.6296 313.6296 L947.8611 313.3268" clip-path="url(#clipPath2)"/>
      <path d="M952.7183 306.97 L941.4595 313.4694 L947.254 314.1213 L949.4055 319.5408 Z" clip-path="url(#clipPath2)" stroke="none"/>
    </g>
  </g>
</svg>
